<?xml version="1.0" standalone="no"?>
<!DOCTYPE svg PUBLIC "-//W3C//DTD SVG 20010904//EN"
 "http://www.w3.org/TR/2001/REC-SVG-20010904/DTD/svg10.dtd">
<svg version="1.0" xmlns="http://www.w3.org/2000/svg"
 width="314.000000pt" height="314.000000pt" viewBox="0 0 314.000000 314.000000"
 preserveAspectRatio="xMidYMid meet">
<metadata>
Created by potrace 1.14, written by Peter Selinger 2001-2017
</metadata>
<g transform="translate(0.000000,314.000000) scale(0.100000,-0.100000)"
fill="#000000" stroke="none">
<path d="M107 1918 c-8 -5 -6 -8 5 -8 9 0 19 -8 22 -18 4 -11 17 -25 31 -32
13 -7 22 -17 19 -22 -5 -7 10 -12 29 -9 5 1 6 -3 3 -8 -9 -14 52 -73 66 -65 6
4 8 3 5 -3 -4 -6 19 -36 50 -67 55 -55 56 -55 73 -36 10 11 23 20 29 20 7 0
11 8 9 18 -2 11 3 17 15 16 9 -1 17 3 17 8 0 13 26 38 39 38 6 0 10 4 9 9 -2
4 20 30 47 56 28 27 49 52 47 57 -1 4 2 8 8 8 16 0 52 40 38 41 -71 5 -553 2
-561 -3z"/>
<path d="M48 1890 c-3 -16 0 -34 6 -40 6 -6 6 -10 1 -10 -6 0 -10 -91 -10
-230 0 -126 4 -230 9 -230 5 0 5 -5 0 -12 -5 -7 -7 -44 -4 -83 5 -73 17 -88
48 -63 10 8 13 9 9 1 -8 -14 50 -13 72 1 9 6 12 5 8 -1 -4 -6 9 -10 33 -10 22
0 40 5 40 11 0 8 2 8 8 0 4 -6 23 -11 42 -11 19 0 38 5 42 11 5 8 8 7 8 -1 0
-14 39 -14 59 1 11 8 13 8 8 0 -8 -14 60 -14 82 0 9 6 12 5 8 -1 -4 -6 9 -10
33 -10 26 0 37 4 33 11 -5 8 -3 8 8 0 18 -14 52 -14 61 0 6 8 8 8 8 0 0 -11
73 -15 83 -4 6 7 -181 189 -188 182 -3 -3 -5 0 -5 7 0 15 -66 81 -74 74 -3 -4
-6 -1 -6 4 0 15 -67 83 -74 76 -3 -4 -6 -1 -6 6 0 16 -46 62 -54 54 -3 -4 -6
4 -6 17 0 13 -3 21 -6 17 -7 -7 -84 72 -84 87 0 6 -4 5 -9 -2 -6 -10 -10 -8
-14 8 -3 12 -10 19 -16 15 -7 -4 -11 3 -11 16 0 12 -3 20 -6 17 -7 -8 -50 34
-46 45 1 4 -4 7 -11 7 -7 0 -19 9 -27 19 -7 11 -17 18 -22 15 -4 -3 -8 2 -8
10 0 29 -18 26 -22 -4z"/>
<path d="M939 1683 c-1 -5 -2 -52 -3 -106 -1 -104 5 -120 42 -110 16 4 21 11
18 29 -5 25 18 52 29 34 3 -6 10 -8 15 -5 7 4 23 -31 21 -47 -1 -8 0 -9 40
-12 18 -2 26 2 26 13 0 9 -3 18 -7 21 -13 9 -23 53 -11 46 26 -16 34 74 10
113 -18 31 -20 31 -99 31 -44 0 -81 -3 -81 -7z m134 -62 c7 -29 -7 -42 -45
-40 -30 3 -34 6 -34 31 0 26 3 28 37 28 28 0 38 -5 42 -19z"/>
<path d="M1163 1683 c-8 -3 -10 -11 -5 -21 5 -9 8 -44 7 -77 -4 -110 3 -118
108 -120 82 -1 90 11 91 128 l1 92 -27 3 c-31 4 -30 8 -32 -98 l-1 -75 -37 -3
c-30 -3 -38 1 -43 18 -4 12 -4 24 -1 27 3 4 1 12 -5 20 -6 7 -7 13 -2 13 8 0
10 46 4 93 -1 8 -39 8 -58 0z"/>
<path d="M1408 1673 c-13 -16 -24 -112 -11 -99 3 3 12 -1 20 -9 8 -9 33 -15
58 -15 29 0 45 -5 49 -15 7 -20 -16 -29 -50 -21 -18 5 -24 3 -19 -5 5 -8 0 -7
-16 1 -19 11 -24 10 -36 -6 -25 -35 -25 -35 82 -39 60 -2 95 13 95 40 0 6 7
12 15 12 9 0 14 -6 11 -13 -12 -31 20 -40 124 -38 87 1 105 4 116 19 17 23 60
26 88 5 29 -23 51 -29 65 -20 10 6 9 13 -4 34 -10 14 -14 26 -11 26 4 0 -1 14
-9 31 -9 17 -14 33 -11 36 3 3 -2 12 -10 20 -8 8 -12 19 -9 24 4 5 1 9 -4 9
-6 0 -11 9 -11 21 0 17 -5 20 -37 17 -21 -2 -38 -7 -39 -13 0 -5 -6 -23 -12
-38 -7 -16 -12 -34 -12 -42 0 -8 -4 -17 -10 -20 -5 -3 -10 -15 -10 -26 0 -10
-5 -19 -11 -19 -6 0 -8 -7 -5 -16 5 -12 1 -14 -17 -8 -12 4 -40 8 -61 8 -46 1
-51 13 -50 114 0 56 -2 62 -20 62 -12 0 -25 -4 -31 -8 -13 -9 -13 -105 0 -114
6 -5 5 -8 -4 -8 -11 0 -11 -3 -1 -15 9 -10 9 -15 1 -15 -6 0 -14 0 -18 0 -5 0
-9 5 -9 10 -1 6 -3 12 -4 15 -3 6 -7 22 -9 34 0 5 -19 8 -41 7 -22 0 -40 2
-40 5 0 4 -8 6 -17 5 -10 0 -19 7 -21 17 -3 14 4 17 51 17 41 0 56 4 61 16 11
28 -3 34 -73 34 -52 0 -71 -4 -83 -17z m506 -114 c-3 -5 -14 -9 -26 -9 -18 0
-19 2 -7 17 12 15 12 16 -1 8 -12 -7 -13 -6 -3 7 7 8 12 17 10 19 -1 3 6 -4
15 -14 10 -11 15 -23 12 -28z"/>
<path d="M2027 1683 c-3 -7 -2 -169 2 -199 2 -19 29 -24 44 -9 9 9 13 31 12
59 -2 25 -2 46 0 46 2 0 17 -21 34 -46 17 -25 26 -42 19 -38 -7 4 -6 0 2 -9
14 -14 38 -21 68 -18 8 1 11 11 7 32 -4 21 -2 28 6 24 8 -6 8 -2 0 13 -14 27
-14 35 1 26 7 -4 8 -3 4 5 -14 21 -17 61 -5 61 8 0 8 4 -1 15 -7 8 -10 22 -6
30 4 11 -1 15 -19 15 -13 0 -27 -5 -30 -11 -11 -17 -12 -69 -1 -69 6 0 5 -5
-2 -12 -8 -8 -15 -8 -26 2 -9 7 -13 16 -10 21 3 5 2 9 -3 9 -4 0 -14 14 -21
30 -11 23 -20 30 -42 30 -16 0 -30 -3 -33 -7z"/>
<path d="M2330 1685 c0 -3 7 -21 15 -41 8 -19 14 -36 15 -39 1 -7 7 -24 21
-60 7 -16 13 -37 15 -45 4 -23 36 -41 58 -34 20 6 29 17 26 30 -1 4 3 10 9 13
6 4 12 16 14 26 2 11 12 37 21 58 9 21 19 51 23 68 5 26 3 29 -20 29 -29 0
-52 -23 -43 -45 3 -8 0 -15 -6 -15 -6 0 -8 -3 -5 -7 4 -3 1 -13 -7 -22 -14
-16 -16 -20 -16 -41 0 -5 -4 -10 -10 -10 -5 0 -9 3 -8 8 2 4 -8 35 -20 70 -21
57 -26 62 -53 62 -16 0 -29 -2 -29 -5z"/>
<path d="M2575 1684 c-10 -4 -11 -183 -2 -208 4 -9 133 -15 167 -7 11 2 8 41
-3 42 -7 1 -31 2 -54 3 -44 2 -56 8 -59 30 -1 11 10 14 45 14 30 -1 45 3 44
10 -2 7 2 12 8 12 6 0 5 6 -3 14 -8 7 -27 12 -43 11 -40 -2 -55 4 -48 21 3 10
22 14 58 14 44 0 54 3 58 19 3 11 2 22 -1 25 -6 7 -152 7 -167 0z"/>
<path d="M2770 1581 c0 -82 3 -111 13 -112 6 -1 72 -2 145 -3 120 -1 133 1
138 17 4 11 -1 23 -12 31 -11 8 -15 21 -12 33 3 12 2 27 -3 34 -4 8 -3 19 3
26 8 10 7 13 -3 13 -8 0 -4 8 10 19 38 29 22 51 -39 51 -55 0 -78 -22 -47 -45
20 -14 27 -142 7 -130 -6 3 -10 1 -10 -4 0 -6 -5 -11 -11 -11 -5 0 -8 4 -5 8
3 5 -16 8 -43 6 -26 -1 -53 1 -59 5 -6 4 -12 42 -14 86 -3 79 -3 80 -30 83
l-28 3 0 -110z"/>
</g>
</svg>
